<svg fill="#fff" xmlns="http://www.w3.org/2000/svg"  viewBox="0 0 100 100" width="100px" height="100px"><path d="M 22.908203 14.015625 C 20.865855 14.092675 19 15.757943 19 18.013672 L 19 81.986328 C 19 85.011331 22.354802 86.966785 24.984375 85.472656 L 24.986328 85.472656 L 82.970703 53.0625 L 82.972656 53.060547 C 85.649871 51.538389 85.627709 47.556378 82.933594 46.064453 L 82.929688 46.0625 L 24.947266 14.505859 C 24.947266 14.505859 24.945312 14.505859 24.945312 14.505859 C 24.288255 14.142349 23.58837 13.989965 22.908203 14.015625 z M 22.931641 15.986328 C 23.275358 15.980528 23.63214 16.063138 23.976562 16.253906 L 23.980469 16.255859 L 81.970703 47.818359 C 83.379983 48.60476 83.388961 50.523675 81.984375 51.322266 L 24 83.732422 L 23.996094 83.734375 C 22.617926 84.518312 21 83.574646 21 81.986328 L 21 18.013672 C 21 16.829901 21.900489 16.003872 22.931641 15.986328 z M 24.5 20.023438 A 0.50005 0.50005 0 0 0 24 20.523438 L 24 79.441406 A 0.50005 0.50005 0 0 0 24.744141 79.878906 L 78.150391 50.027344 A 0.50005 0.50005 0 0 0 78.146484 49.152344 L 45.738281 31.513672 A 0.50005 0.50005 0 1 0 45.261719 32.392578 L 76.871094 49.595703 L 25 78.589844 L 25 21.365234 L 33.261719 25.861328 A 0.50005 0.50005 0 1 0 33.738281 24.984375 L 24.738281 20.083984 A 0.50005 0.50005 0 0 0 24.5 20.023438 z M 36.5 26.550781 A 0.50005 0.50005 0 0 0 36.261719 27.494141 L 39.261719 29.126953 A 0.50005 0.50005 0 1 0 39.738281 28.248047 L 36.738281 26.615234 A 0.50005 0.50005 0 0 0 36.5 26.550781 z M 41.5 29.273438 A 0.50005 0.50005 0 0 0 41.261719 30.214844 L 43.261719 31.304688 A 0.50005 0.50005 0 1 0 43.738281 30.425781 L 41.738281 29.335938 A 0.50005 0.50005 0 0 0 41.5 29.273438 z"/></svg>